<svg xmlns="http://www.w3.org/2000/svg" viewBox="0 0 100 100">
  <circle cx="50" cy="50" r="48" fill="#FFFFFF"/>
  <circle cx="50" cy="50" r="48" fill="none" stroke="#000000" stroke-width="4"/>
  <circle cx="50" cy="50" r="40" fill="none" stroke="#000000" stroke-width="8"/>
  <path d="M50 10 L50 50 L90 50 A40 40 0 0 0 50 10 Z" fill="#0066B1"/>
  <path d="M50 90 L50 50 L10 50 A40 40 0 0 0 50 90 Z" fill="#0066B1"/>
  <path d="M50 10 L50 50 L10 50 A40 40 0 0 1 50 10 Z" fill="#FFFFFF"/>
  <path d="M50 90 L50 50 L90 50 A40 40 0 0 1 50 90 Z" fill="#FFFFFF"/>
  <g font-family="Arial, Helvetica, sans-serif" font-weight="bold" font-size="8" fill="#000000">
    <text x="27" y="22">B</text>
    <text x="47" y="16">M</text>
    <text x="68" y="22">W</text>
  </g>
</svg>