<svg viewBox="0 0 200 200" xmlns="http://www.w3.org/2000/svg">
  <circle cx="100" cy="100" r="98" fill="#FFFFFF" stroke="#000000" stroke-width="4"/>
  <circle cx="100" cy="100" r="78" fill="none" stroke="#000000" stroke-width="12"/>
  <path d="M100 22 L100 100 L178 100 A78 78 0 0 0 100 22 Z" fill="#0066B1"/>
  <path d="M100 178 L100 100 L22 100 A78 78 0 0 0 100 178 Z" fill="#0066B1"/>
  <path d="M100 22 L100 100 L22 100 A78 78 0 0 1 100 22 Z" fill="#FFFFFF"/>
  <path d="M100 178 L100 100 L178 100 A78 78 0 0 1 100 178 Z" fill="#FFFFFF"/>
  <text x="100" y="18" text-anchor="middle" font-family="Arial, sans-serif" font-weight="bold" font-size="11" fill="#000000">B M W</text>
</svg>