<svg xmlns="http://www.w3.org/2000/svg" viewBox="0 0 100 100">
  <rect x="10" y="10" width="80" height="80" rx="8" fill="#000000"/>
  <g fill="none" stroke="#FFFFFF" stroke-width="2.5">
    <path d="M50 18 C38 18 30 28 30 40 L30 55 C25 53 18 56 18 65 C18 74 26 78 34 75 L34 82 L66 82 L66 75 C74 78 82 74 82 65 C82 56 75 53 70 55 L70 40 C70 28 62 18 50 18"/>
    <path d="M42 32 L50 22 L58 32"/>
    <path d="M42 44 L50 34 L58 44"/>
    <path d="M42 56 L50 46 L58 56"/>
    <line x1="50" y1="56" x2="50" y2="72"/>
  </g>
</svg>