<svg viewBox="0 0 200 200" xmlns="http://www.w3.org/2000/svg">
  <circle cx="100" cy="100" r="95" fill="none" stroke="#000000" stroke-width="5"/>
  <g fill="#000000">
    <path d="M100 25 
             C85 30 75 45 75 60 
             L75 85 
             C60 80 45 85 35 100 
             C45 115 60 120 75 115 
             L75 175 
             L85 175 
             L85 110 
             C90 108 95 105 100 100 
             C105 105 110 108 115 110 
             L115 175 
             L125 175 
             L125 115 
             C140 120 155 115 165 100 
             C155 85 140 80 125 85 
             L125 60 
             C125 45 115 30 100 25 Z
             M90 55 L100 40 L110 55 L100 65 Z
             M90 80 L100 65 L110 80 L100 90 Z"/>
  </g>
</svg>